<!-- <svg xmlns="http://www.w3.org/2000/svg" viewBox="0 0 1759.58 1897.11"></svg>
  <defs>
    <style>
      .cls-1 {
        fill: #eff5f6;
      }
    </style>
  </defs>
  <g id="Layer_2" data-name="Layer 2">
    <g id="Layer_1-2" data-name="Layer 1">
      <path class="cls-1"
        d="M879.79,0C393.9,0,0,393.9,0,879.79c0,344.6,198.12,642.92,486.67,787.28v59.78L511.62,1757l9.9,12,372.71,128.09,367.15-127.87,10.08-12.2,25-30.19v-72c275.75-148.53,463.17-439.92,463.17-775.08C1759.58,393.9,1365.68,0,879.79,0Z" />
    </g>
  </g>
</svg> -->

<svg height="0" width="0">
	<defs>
		<clipPath id="svgPath">
			<path class="cls-1"
        d="M879.79,0C393.9,0,0,393.9,0,879.79c0,344.6,198.12,642.92,486.67,787.28v59.78L511.62,1757l9.9,12,372.71,128.09,367.15-127.87,10.08-12.2,25-30.19v-72c275.75-148.53,463.17-439.92,463.17-775.08C1759.58,393.9,1365.68,0,879.79,0Z" />
		</clipPath>
	</defs>
</svg>