<svg width="36" height="36" viewBox="0 0 36 36" fill="none" xmlns="http://www.w3.org/2000/svg">
<mask id="mask0_395_1598" style="mask-type:alpha" maskUnits="userSpaceOnUse" x="0" y="0" width="36" height="36">
<rect width="36" height="36" fill="#D9D9D9"/>
</mask>
<g mask="url(#mask0_395_1598)">
<path d="M18.0002 19.6797C19.4741 19.6797 20.7296 19.1613 21.7665 18.1243C22.8035 17.0873 23.322 15.8319 23.322 14.358C23.322 12.8841 22.8035 11.6301 21.7665 10.5962C20.7296 9.5622 19.4741 9.04523 18.0002 9.04523C16.5263 9.04523 15.2709 9.5622 14.2339 10.5962C13.197 11.6301 12.6785 12.8841 12.6785 14.358C12.6785 15.8319 13.197 17.0873 14.2339 18.1243C15.2709 19.1613 16.5263 19.6797 18.0002 19.6797ZM7.60785 31.8053C6.66327 31.8053 5.85837 31.4727 5.19315 30.8074C4.52792 30.1422 4.19531 29.3373 4.19531 28.3928V7.608C4.19531 6.66343 4.52792 5.85853 5.19315 5.1933C5.85837 4.52808 6.66327 4.19547 7.60785 4.19547H28.3926C29.3372 4.19547 30.1421 4.52808 30.8073 5.1933C31.4725 5.85853 31.8051 6.66343 31.8051 7.608V28.3928C31.8051 29.3373 31.4725 30.1422 30.8073 30.8074C30.1421 31.4727 29.3372 31.8053 28.3926 31.8053H7.60785ZM7.60785 28.3928H28.3926V26.4705C27.0426 25.1754 25.4918 24.163 23.7402 23.4334C21.9885 22.7038 20.0752 22.339 18.0002 22.339C15.9252 22.339 14.0119 22.7068 12.2603 23.4423C10.5087 24.1779 8.95785 25.1933 7.60785 26.4884V28.3928Z" fill="#0CA9DA"/>
</g>
</svg>
