<svg width="21" height="20" viewBox="0 0 21 20" fill="none" xmlns="http://www.w3.org/2000/svg">
<mask id="mask0_773_670" style="mask-type:alpha" maskUnits="userSpaceOnUse" x="0" y="0" width="21" height="20">
<rect x="0.333496" width="20" height="20" fill="#D9D9D9"/>
</mask>
<g mask="url(#mask0_773_670)">
<path d="M5.20833 14.25C5.91667 13.7083 6.70833 13.2812 7.58333 12.9687C8.45833 12.6562 9.375 12.5 10.3333 12.5C11.2917 12.5 12.2083 12.6562 13.0833 12.9687C13.9583 13.2812 14.75 13.7083 15.4583 14.25C15.9444 13.6805 16.3229 13.0347 16.5938 12.3125C16.8646 11.5903 17 10.8194 17 9.99999C17 8.15277 16.3507 6.57985 15.0521 5.28124C13.7535 3.98263 12.1806 3.33332 10.3333 3.33332C8.48611 3.33332 6.91319 3.98263 5.61458 5.28124C4.31597 6.57985 3.66667 8.15277 3.66667 9.99999C3.66667 10.8194 3.80208 11.5903 4.07292 12.3125C4.34375 13.0347 4.72222 13.6805 5.20833 14.25ZM10.3333 10.8333C9.51389 10.8333 8.82292 10.5521 8.26042 9.98957C7.69792 9.42707 7.41667 8.7361 7.41667 7.91666C7.41667 7.09721 7.69792 6.40624 8.26042 5.84374C8.82292 5.28124 9.51389 4.99999 10.3333 4.99999C11.1528 4.99999 11.8438 5.28124 12.4062 5.84374C12.9688 6.40624 13.25 7.09721 13.25 7.91666C13.25 8.7361 12.9688 9.42707 12.4062 9.98957C11.8438 10.5521 11.1528 10.8333 10.3333 10.8333ZM10.3333 18.3333C9.18056 18.3333 8.09722 18.1146 7.08333 17.6771C6.06944 17.2396 5.1875 16.6458 4.4375 15.8958C3.6875 15.1458 3.09375 14.2639 2.65625 13.25C2.21875 12.2361 2 11.1528 2 9.99999C2 8.84721 2.21875 7.76388 2.65625 6.74999C3.09375 5.7361 3.6875 4.85416 4.4375 4.10416C5.1875 3.35416 6.06944 2.76041 7.08333 2.32291C8.09722 1.88541 9.18056 1.66666 10.3333 1.66666C11.4861 1.66666 12.5694 1.88541 13.5833 2.32291C14.5972 2.76041 15.4792 3.35416 16.2292 4.10416C16.9792 4.85416 17.5729 5.7361 18.0104 6.74999C18.4479 7.76388 18.6667 8.84721 18.6667 9.99999C18.6667 11.1528 18.4479 12.2361 18.0104 13.25C17.5729 14.2639 16.9792 15.1458 16.2292 15.8958C15.4792 16.6458 14.5972 17.2396 13.5833 17.6771C12.5694 18.1146 11.4861 18.3333 10.3333 18.3333Z" fill="#2C2C2C"/>
</g>
</svg>
