<svg width="24" height="24" viewBox="0 0 24 24" fill="none" xmlns="http://www.w3.org/2000/svg">
<mask id="mask0_395_1797" style="mask-type:alpha" maskUnits="userSpaceOnUse" x="0" y="0" width="24" height="24">
<rect width="24" height="24" fill="#D9D9D9"/>
</mask>
<g mask="url(#mask0_395_1797)">
<path d="M10.9105 17.0479H13.0898V13.0897H17.048V10.9104H13.0898V6.9522H10.9105V10.9104H6.95233V13.0897H10.9105V17.0479ZM5.0719 21.2033C4.44218 21.2033 3.90558 20.9816 3.4621 20.5381C3.01862 20.0946 2.79688 19.558 2.79688 18.9283V5.07178C2.79688 4.44206 3.01862 3.90546 3.4621 3.46198C3.90558 3.01849 4.44218 2.79675 5.0719 2.79675H18.9284C19.5581 2.79675 20.0947 3.01849 20.5382 3.46198C20.9817 3.90546 21.2034 4.44206 21.2034 5.07178V18.9283C21.2034 19.558 20.9817 20.0946 20.5382 20.5381C20.0947 20.9816 19.5581 21.2033 18.9284 21.2033H5.0719ZM5.0719 18.9283H18.9284V5.07178H5.0719V18.9283Z" fill="#282828"/>
</g>
</svg>
