<svg width="24" height="24" viewBox="0 0 24 24" fill="none" xmlns="http://www.w3.org/2000/svg">
<mask id="mask0_395_1731" style="mask-type:alpha" maskUnits="userSpaceOnUse" x="0" y="0" width="24" height="24">
<rect width="24" height="24" fill="#D9D9D9"/>
</mask>
<g mask="url(#mask0_395_1731)">
<path d="M9.00006 22.1255C8.01346 22.1255 7.08919 21.9402 6.22724 21.5695C5.36529 21.1989 4.60967 20.689 3.96039 20.0397C3.3111 19.3904 2.80114 18.6348 2.43049 17.7728C2.05984 16.9109 1.87451 15.9866 1.87451 15C1.87451 13.6221 2.2275 12.3678 2.93349 11.2372C3.63947 10.1066 4.55913 9.24963 5.69246 8.6663C6.02579 8.0163 6.44228 7.44148 6.94191 6.94185C7.44155 6.44222 8.01636 6.02573 8.66636 5.6924C9.22433 4.55907 10.0819 3.63941 11.2392 2.93342C12.3964 2.22744 13.6501 1.87445 15.0001 1.87445C15.9867 1.87445 16.9109 2.05977 17.7729 2.43042C18.6348 2.80107 19.3905 3.31104 20.0397 3.96033C20.689 4.60961 21.199 5.36722 21.5696 6.23315C21.9403 7.0991 22.1256 8.02537 22.1256 9.01195C22.1256 10.4007 21.7826 11.6467 21.0965 12.75C20.4105 13.8533 19.4809 14.7145 18.3077 15.3337C17.9943 15.9478 17.5788 16.5197 17.0612 17.0492C16.5436 17.5787 15.9678 17.9962 15.3338 18.3016C14.7504 19.435 13.8964 20.3556 12.7718 21.0636C11.6472 21.7716 10.3899 22.1255 9.00006 22.1255ZM9.01201 19.9462C9.52615 19.9502 10.0214 19.8758 10.4979 19.7231C10.9743 19.5704 11.4113 19.3413 11.8088 19.0359C10.866 19.0199 9.98058 18.8316 9.15251 18.4709C8.32443 18.1102 7.5997 17.6212 6.97831 17.0038C6.35695 16.3864 5.86591 15.6667 5.50521 14.8446C5.14453 14.0225 4.95821 13.142 4.94626 12.2033C4.6488 12.6127 4.4257 13.0536 4.27696 13.5261C4.12823 13.9986 4.05386 14.4899 4.05386 15C4.05386 15.692 4.1852 16.3341 4.44789 16.9261C4.71057 17.5181 5.06492 18.0371 5.51094 18.4832C5.95695 18.9292 6.47797 19.2825 7.07399 19.5432C7.66999 19.8039 8.316 19.9382 9.01201 19.9462ZM12.012 16.9462C12.5222 16.9462 13.0198 16.8718 13.505 16.7231C13.9901 16.5744 14.4354 16.3513 14.8408 16.0538C13.8814 16.0379 12.9876 15.8464 12.1596 15.4794C11.3315 15.1123 10.6068 14.6181 9.98539 13.9967C9.364 13.3754 8.8688 12.6526 8.49979 11.8285C8.13077 11.0044 7.94228 10.1127 7.93431 9.15327C7.63685 9.56269 7.41574 10.011 7.27099 10.4981C7.12624 10.9852 7.05386 11.4859 7.05386 12C7.05386 12.692 7.18303 13.3351 7.44136 13.9291C7.6997 14.5231 8.05821 15.0431 8.51691 15.4891C8.96293 15.9478 9.48395 16.3053 10.08 16.5617C10.676 16.818 11.32 16.9462 12.012 16.9462ZM15.0001 13.9462C15.3001 13.9462 15.5816 13.9222 15.8446 13.8742C16.1077 13.8262 16.3809 13.7522 16.6642 13.6522C17.0109 12.6681 17.0561 11.7226 16.7998 10.8155C16.5435 9.90843 16.1026 9.14421 15.4772 8.52283C14.8559 7.89746 14.0916 7.45661 13.1846 7.20027C12.2775 6.94392 11.332 6.98913 10.3479 7.33588C10.2479 7.62319 10.1739 7.89837 10.1259 8.16142C10.0779 8.42446 10.0539 8.70398 10.0539 9C10.0539 9.69203 10.182 10.3351 10.4384 10.9291C10.6947 11.5231 11.0522 12.0431 11.5109 12.4891C11.957 12.9478 12.477 13.3053 13.071 13.5617C13.665 13.818 14.308 13.9462 15.0001 13.9462ZM19.0718 11.8288C19.3613 11.4313 19.5794 10.989 19.7261 10.5019C19.8729 10.0148 19.9463 9.51413 19.9463 9C19.9463 8.30797 19.8191 7.66494 19.5647 7.07092C19.3104 6.47691 18.9539 5.95689 18.4952 5.51087C18.0491 5.05218 17.5301 4.69466 16.9381 4.43833C16.3461 4.18198 15.704 4.0538 15.012 4.0538C14.4765 4.0538 13.9685 4.12817 13.4881 4.2769C13.0077 4.42563 12.5687 4.64475 12.1713 4.93425C13.1227 4.95815 14.0105 5.15561 14.8346 5.52663C15.6587 5.89764 16.3814 6.39185 17.0028 7.00925C17.6242 7.62663 18.1194 8.34638 18.4884 9.16848C18.8574 9.99058 19.0519 10.8773 19.0718 11.8288Z" fill="#282828"/>
</g>
</svg>
