<svg width="25" height="24" viewBox="0 0 25 24" fill="none" xmlns="http://www.w3.org/2000/svg">
<mask id="mask0_488_808" style="mask-type:alpha" maskUnits="userSpaceOnUse" x="0" y="0" width="25" height="24">
<rect x="0.5" width="24" height="24" fill="#D9D9D9"/>
</mask>
<g mask="url(#mask0_488_808)">
<path d="M12.55 20C10.3167 20 8.41667 19.225 6.85 17.675C5.28333 16.125 4.5 14.2333 4.5 12V11.825L2.9 13.425L1.5 12.025L5.5 8.025L9.5 12.025L8.1 13.425L6.5 11.825V12C6.5 13.6667 7.0875 15.0833 8.2625 16.25C9.4375 17.4167 10.8667 18 12.55 18C12.9833 18 13.4083 17.95 13.825 17.85C14.2417 17.75 14.65 17.6 15.05 17.4L16.55 18.9C15.9167 19.2667 15.2667 19.5417 14.6 19.725C13.9333 19.9083 13.25 20 12.55 20ZM19.5 15.975L15.5 11.975L16.9 10.575L18.5 12.175V12C18.5 10.3333 17.9125 8.91667 16.7375 7.75C15.5625 6.58333 14.1333 6 12.45 6C12.0167 6 11.5917 6.05 11.175 6.15C10.7583 6.25 10.35 6.4 9.95 6.6L8.45 5.1C9.08333 4.73333 9.73333 4.45833 10.4 4.275C11.0667 4.09167 11.75 4 12.45 4C14.6833 4 16.5833 4.775 18.15 6.325C19.7167 7.875 20.5 9.76667 20.5 12V12.175L22.1 10.575L23.5 11.975L19.5 15.975Z" fill="#727272"/>
</g>
</svg>
