<svg width="40" height="40" viewBox="0 0 40 40" fill="none" xmlns="http://www.w3.org/2000/svg">
<mask id="mask0_633_380" style="mask-type:alpha" maskUnits="userSpaceOnUse" x="0" y="0" width="40" height="40">
<rect width="40" height="40" fill="#D9D9D9"/>
</mask>
<g mask="url(#mask0_633_380)">
<path d="M17.6673 27.6673L29.4173 15.9173L27.084 13.584L17.6673 23.0007L12.9173 18.2507L10.584 20.584L17.6673 27.6673ZM20.0007 36.6673C17.6951 36.6673 15.5284 36.2298 13.5007 35.3548C11.4729 34.4798 9.70898 33.2923 8.20898 31.7923C6.70898 30.2923 5.52148 28.5284 4.64648 26.5007C3.77148 24.4729 3.33398 22.3062 3.33398 20.0007C3.33398 17.6951 3.77148 15.5284 4.64648 13.5007C5.52148 11.4729 6.70898 9.70898 8.20898 8.20898C9.70898 6.70898 11.4729 5.52148 13.5007 4.64648C15.5284 3.77148 17.6951 3.33398 20.0007 3.33398C22.3062 3.33398 24.4729 3.77148 26.5007 4.64648C28.5284 5.52148 30.2923 6.70898 31.7923 8.20898C33.2923 9.70898 34.4798 11.4729 35.3548 13.5007C36.2298 15.5284 36.6673 17.6951 36.6673 20.0007C36.6673 22.3062 36.2298 24.4729 35.3548 26.5007C34.4798 28.5284 33.2923 30.2923 31.7923 31.7923C30.2923 33.2923 28.5284 34.4798 26.5007 35.3548C24.4729 36.2298 22.3062 36.6673 20.0007 36.6673ZM20.0007 33.334C23.7229 33.334 26.8757 32.0423 29.459 29.459C32.0423 26.8757 33.334 23.7229 33.334 20.0007C33.334 16.2784 32.0423 13.1257 29.459 10.5423C26.8757 7.95898 23.7229 6.66732 20.0007 6.66732C16.2784 6.66732 13.1257 7.95898 10.5423 10.5423C7.95898 13.1257 6.66732 16.2784 6.66732 20.0007C6.66732 23.7229 7.95898 26.8757 10.5423 29.459C13.1257 32.0423 16.2784 33.334 20.0007 33.334Z" fill="white"/>
</g>
</svg>
