<svg width="24" height="24" viewBox="0 0 24 24" fill="none" xmlns="http://www.w3.org/2000/svg">
<mask id="mask0_73_321" style="mask-type:alpha" maskUnits="userSpaceOnUse" x="0" y="0" width="24" height="24">
<rect width="24" height="24" fill="#D9D9D9"/>
</mask>
<g mask="url(#mask0_73_321)">
<path d="M9.2092 18.0657C8.57949 18.0657 8.04289 17.844 7.5994 17.4005C7.15594 16.957 6.9342 16.4204 6.9342 15.7907V3.9342C6.9342 3.30449 7.15594 2.76789 7.5994 2.3244C8.04289 1.88092 8.57949 1.65918 9.2092 1.65918H18.0657C18.6954 1.65918 19.232 1.88092 19.6755 2.3244C20.119 2.76789 20.3407 3.30449 20.3407 3.9342V15.7907C20.3407 16.4204 20.119 16.957 19.6755 17.4005C19.232 17.844 18.6954 18.0657 18.0657 18.0657H9.2092ZM4.9342 22.3407C4.30449 22.3407 3.76789 22.119 3.3244 21.6755C2.88092 21.232 2.65918 20.6954 2.65918 20.0657V5.9342H4.9342V20.0657H16.0657V22.3407H4.9342Z" fill="#2C2C2C"/>
</g>
</svg>
