<svg width="24" height="24" viewBox="0 0 24 24" fill="none" xmlns="http://www.w3.org/2000/svg">
<mask id="mask0_407_723" style="mask-type:alpha" maskUnits="userSpaceOnUse" x="0" y="0" width="24" height="24">
<rect width="24" height="24" fill="#D9D9D9"/>
</mask>
<g mask="url(#mask0_407_723)">
<path d="M9.2092 18.0658C8.57949 18.0658 8.04289 17.844 7.5994 17.4006C7.15594 16.9571 6.9342 16.4205 6.9342 15.7908V3.93427C6.9342 3.30455 7.15594 2.76795 7.5994 2.32447C8.04289 1.88098 8.57949 1.65924 9.2092 1.65924H18.0657C18.6954 1.65924 19.232 1.88098 19.6755 2.32447C20.119 2.76795 20.3407 3.30455 20.3407 3.93427V15.7908C20.3407 16.4205 20.119 16.9571 19.6755 17.4006C19.232 17.844 18.6954 18.0658 18.0657 18.0658H9.2092ZM4.9342 22.3408C4.30449 22.3408 3.76789 22.119 3.3244 21.6756C2.88092 21.2321 2.65918 20.6955 2.65918 20.0658V5.93427H4.9342V20.0658H16.0657V22.3408H4.9342Z" fill="white"/>
</g>
</svg>
