<svg width="20" height="20" viewBox="0 0 20 20" fill="none" xmlns="http://www.w3.org/2000/svg">
<mask id="mask0_773_3268" style="mask-type:alpha" maskUnits="userSpaceOnUse" x="0" y="0" width="20" height="20">
<rect width="20" height="20" fill="#D9D9D9"/>
</mask>
<g mask="url(#mask0_773_3268)">
<path d="M7.5 17.5V15.8333H5V14.1667H6.66667V5.83333H5V4.16667H7.5V2.5H9.16667V4.16667H10.8333V2.5H12.5V4.27083C13.2222 4.46528 13.8194 4.85764 14.2917 5.44792C14.7639 6.03819 15 6.72222 15 7.5C15 7.90278 14.9306 8.28819 14.7917 8.65625C14.6528 9.02431 14.4583 9.35417 14.2083 9.64583C14.6944 9.9375 15.0868 10.3333 15.3854 10.8333C15.684 11.3333 15.8333 11.8889 15.8333 12.5C15.8333 13.4167 15.5069 14.2014 14.8542 14.8542C14.2014 15.5069 13.4167 15.8333 12.5 15.8333V17.5H10.8333V15.8333H9.16667V17.5H7.5ZM8.33333 9.16667H11.6667C12.125 9.16667 12.5174 9.00347 12.8437 8.67708C13.1701 8.35069 13.3333 7.95833 13.3333 7.5C13.3333 7.04167 13.1701 6.64931 12.8437 6.32292C12.5174 5.99653 12.125 5.83333 11.6667 5.83333H8.33333V9.16667ZM8.33333 14.1667H12.5C12.9583 14.1667 13.3507 14.0035 13.6771 13.6771C14.0035 13.3507 14.1667 12.9583 14.1667 12.5C14.1667 12.0417 14.0035 11.6493 13.6771 11.3229C13.3507 10.9965 12.9583 10.8333 12.5 10.8333H8.33333V14.1667Z" fill="#2C2C2C"/>
</g>
</svg>
