<svg width="24" height="24" viewBox="0 0 24 24" fill="none" xmlns="http://www.w3.org/2000/svg">
<mask id="mask0_395_1657" style="mask-type:alpha" maskUnits="userSpaceOnUse" x="0" y="0" width="24" height="24">
<rect width="24" height="24" fill="#D9D9D9"/>
</mask>
<g mask="url(#mask0_395_1657)">
<path d="M7.99951 18H15.9995V16H7.99951V18ZM7.99951 14H15.9995V12H7.99951V14ZM5.99951 22C5.44951 22 4.97868 21.8042 4.58701 21.4125C4.19535 21.0209 3.99951 20.55 3.99951 20V4.00003C3.99951 3.45003 4.19535 2.9792 4.58701 2.58753C4.97868 2.19586 5.44951 2.00003 5.99951 2.00003H13.9995L19.9995 8.00003V20C19.9995 20.55 19.8037 21.0209 19.412 21.4125C19.0203 21.8042 18.5495 22 17.9995 22H5.99951ZM12.9995 9.00003V4.00003H5.99951V20H17.9995V9.00003H12.9995Z" fill="#282828"/>
</g>
</svg>
