<svg width="24" height="24" viewBox="0 0 24 24" fill="none" xmlns="http://www.w3.org/2000/svg">
<mask id="mask0_395_2037" style="mask-type:alpha" maskUnits="userSpaceOnUse" x="0" y="0" width="24" height="24">
<rect width="24" height="24" fill="#D9D9D9"/>
</mask>
<g mask="url(#mask0_395_2037)">
<path d="M11.9985 17.2033C12.3306 17.2033 12.6094 17.091 12.835 16.8663C13.0605 16.6417 13.1733 16.3633 13.1733 16.0313C13.1733 15.6992 13.061 15.4194 12.8363 15.1919C12.6117 14.9643 12.3333 14.8506 12.0013 14.8506C11.6692 14.8506 11.3904 14.9643 11.1649 15.1919C10.9393 15.4194 10.8265 15.6992 10.8265 16.0313C10.8265 16.3633 10.9388 16.6417 11.1635 16.8663C11.3881 17.091 11.6665 17.2033 11.9985 17.2033ZM10.8624 13.012H13.1374V6.87446H10.8624V13.012ZM11.9999 22.2033C10.5847 22.2033 9.25681 21.9356 8.01628 21.4003C6.77575 20.865 5.69666 20.1386 4.77901 19.2209C3.86136 18.3033 3.13488 17.2242 2.59958 15.9836C2.06428 14.7431 1.79663 13.4152 1.79663 12C1.79663 10.5848 2.06428 9.25692 2.59958 8.01639C3.13488 6.77585 3.86136 5.69676 4.77901 4.77911C5.69666 3.86146 6.77575 3.13499 8.01628 2.59969C9.25681 2.06439 10.5847 1.79674 11.9999 1.79674C13.4151 1.79674 14.743 2.06439 15.9835 2.59969C17.2241 3.13499 18.3032 3.86146 19.2208 4.77911C20.1385 5.69676 20.8649 6.77585 21.4002 8.01639C21.9355 9.25692 22.2032 10.5848 22.2032 12C22.2032 13.4152 21.9355 14.7431 21.4002 15.9836C20.8649 17.2242 20.1385 18.3033 19.2208 19.2209C18.3032 20.1386 17.2241 20.865 15.9835 21.4003C14.743 21.9356 13.4151 22.2033 11.9999 22.2033ZM11.9999 19.9283C14.2173 19.9283 16.093 19.1612 17.6271 17.6272C19.1611 16.0931 19.9282 14.2174 19.9282 12C19.9282 9.78263 19.1611 7.9069 17.6271 6.37284C16.093 4.83879 14.2173 4.07176 11.9999 4.07176C9.78252 4.07176 7.9068 4.83879 6.37273 6.37284C4.83868 7.9069 4.07166 9.78263 4.07166 12C4.07166 14.2174 4.83868 16.0931 6.37273 17.6272C7.9068 19.1612 9.78252 19.9283 11.9999 19.9283Z" fill="#DB7F13"/>
</g>
</svg>
