<svg width="20" height="20" viewBox="0 0 20 20" fill="none" xmlns="http://www.w3.org/2000/svg">
<g filter="url(#filter0_d_773_3262)">
<mask id="mask0_773_3262" style="mask-type:alpha" maskUnits="userSpaceOnUse" x="0" y="0" width="20" height="20">
<rect width="20" height="20" fill="#D9D9D9"/>
</mask>
<g mask="url(#mask0_773_3262)">
<path d="M5.33744 13.0638L5.33747 13.0638C6.25806 13.9862 7.42496 15.0832 8.83901 16.3552L5.33744 13.0638ZM5.33744 13.0638C4.41785 12.1427 3.69284 11.3203 3.1593 10.5961C2.62542 9.87144 2.25982 9.21437 2.05362 8.62403L2.05362 8.62401M5.33744 13.0638L2.05362 8.62401M2.05362 8.62401C1.8459 8.02945 1.74219 7.41906 1.74219 6.79167C1.74219 5.49834 2.17202 4.43135 3.02892 3.57287C3.88569 2.71452 4.95171 2.28397 6.2449 2.28397C6.92875 2.28397 7.57791 2.42271 8.19477 2.70026C8.81185 2.97806 9.34931 3.37263 9.8086 3.88588L9.9949 4.09408M2.05362 8.62401L9.9949 4.09408M9.9949 4.09408L10.1812 3.88588M9.9949 4.09408L10.1812 3.88588M10.1812 3.88588C10.6405 3.37263 11.1779 2.97806 11.795 2.70026C12.4119 2.42271 13.061 2.28397 13.7449 2.28397C15.0381 2.28397 16.106 2.71454 16.9662 3.5732C17.8263 4.43173 18.2576 5.49863 18.2576 6.79167C18.2576 7.41581 18.1547 8.02473 17.9485 8.61958L17.9485 8.61959M10.1812 3.88588L17.9485 8.61959M17.9485 8.61959C17.7441 9.20938 17.3787 9.86527 16.8434 10.5881C16.308 11.3109 15.5812 12.1334 14.6598 13.0563L14.6598 13.0563M17.9485 8.61959L14.6598 13.0563M14.6598 13.0563C13.7376 13.9804 12.5682 15.0799 11.1508 16.3552L14.6598 13.0563ZM9.9949 17.3932L8.83918 16.3554L11.1506 16.3554L9.9949 17.3932Z" fill="#0CA9DA" stroke="#2C2C2C" stroke-width="0.5"/>
</g>
</g>
<defs>
<filter id="filter0_d_773_3262" x="1.49219" y="2.03397" width="17.0156" height="16.6952" filterUnits="userSpaceOnUse" color-interpolation-filters="sRGB">
<feFlood flood-opacity="0" result="BackgroundImageFix"/>
<feColorMatrix in="SourceAlpha" type="matrix" values="0 0 0 0 0 0 0 0 0 0 0 0 0 0 0 0 0 0 127 0" result="hardAlpha"/>
<feOffset dy="1"/>
<feComposite in2="hardAlpha" operator="out"/>
<feColorMatrix type="matrix" values="0 0 0 0 0.172549 0 0 0 0 0.172549 0 0 0 0 0.172549 0 0 0 1 0"/>
<feBlend mode="normal" in2="BackgroundImageFix" result="effect1_dropShadow_773_3262"/>
<feBlend mode="normal" in="SourceGraphic" in2="effect1_dropShadow_773_3262" result="shape"/>
</filter>
</defs>
</svg>
