<svg width="16" height="17" viewBox="0 0 16 17" fill="none" xmlns="http://www.w3.org/2000/svg">
<mask id="mask0_395_586" style="mask-type:alpha" maskUnits="userSpaceOnUse" x="0" y="0" width="16" height="17">
<rect y="0.5" width="16" height="16" fill="#D9D9D9"/>
</mask>
<g mask="url(#mask0_395_586)">
<path d="M7.27349 11.8931H8.72639V7.83333H7.27349V11.8931ZM7.99994 6.57972C8.21141 6.57972 8.38868 6.50819 8.53174 6.36513C8.67479 6.22208 8.74632 6.04481 8.74632 5.83333C8.74632 5.62185 8.67479 5.44459 8.53174 5.30153C8.38868 5.15848 8.21141 5.08695 7.99994 5.08695C7.78846 5.08695 7.61119 5.15848 7.46814 5.30153C7.32508 5.44459 7.25355 5.62185 7.25355 5.83333C7.25355 6.04481 7.32508 6.22208 7.46814 6.36513C7.61119 6.50819 7.78846 6.57972 7.99994 6.57972ZM7.99994 15.3022C7.05646 15.3022 6.17121 15.1237 5.34419 14.7669C4.51716 14.41 3.79777 13.9257 3.186 13.3139C2.57424 12.7022 2.08992 11.9828 1.73305 11.1557C1.37619 10.3287 1.19775 9.44348 1.19775 8.5C1.19775 7.55652 1.37619 6.67127 1.73305 5.84425C2.08992 5.01723 2.57424 4.29783 3.186 3.68606C3.79777 3.0743 4.51716 2.58998 5.34419 2.23311C6.17121 1.87625 7.05646 1.69781 7.99994 1.69781C8.94342 1.69781 9.82866 1.87625 10.6557 2.23311C11.4827 2.58998 12.2021 3.0743 12.8139 3.68606C13.4256 4.29783 13.91 5.01723 14.2668 5.84425C14.6237 6.67127 14.8021 7.55652 14.8021 8.5C14.8021 9.44348 14.6237 10.3287 14.2668 11.1557C13.91 11.9828 13.4256 12.7022 12.8139 13.3139C12.2021 13.9257 11.4827 14.41 10.6557 14.7669C9.82866 15.1237 8.94342 15.3022 7.99994 15.3022ZM7.99994 13.7855C9.47819 13.7855 10.7287 13.2741 11.7514 12.2514C12.7741 11.2287 13.2854 9.97825 13.2854 8.5C13.2854 7.02174 12.7741 5.77126 11.7514 4.74855C10.7287 3.72585 9.47819 3.2145 7.99994 3.2145C6.52168 3.2145 5.2712 3.72585 4.24849 4.74855C3.22579 5.77126 2.71444 7.02174 2.71444 8.5C2.71444 9.97825 3.22579 11.2287 4.24849 12.2514C5.2712 13.2741 6.52168 13.7855 7.99994 13.7855Z" fill="#636467"/>
</g>
</svg>
