<svg width="24" height="24" viewBox="0 0 24 24" fill="none" xmlns="http://www.w3.org/2000/svg">
<mask id="mask0_395_1695" style="mask-type:alpha" maskUnits="userSpaceOnUse" x="0" y="0" width="24" height="24">
<rect width="24" height="24" fill="#D9D9D9"/>
</mask>
<g mask="url(#mask0_395_1695)">
<path d="M10.9105 17.2033H7.00015C5.56058 17.2033 4.33348 16.696 3.31885 15.6814C2.3042 14.6669 1.79688 13.4399 1.79688 12.0005C1.79688 10.561 2.3042 9.33387 3.31885 8.31902C4.33348 7.30415 5.56058 6.79672 7.00015 6.79672H10.9105V9.07175H7.0027C6.18858 9.07175 5.49659 9.35644 4.92673 9.92582C4.35684 10.4952 4.0719 11.1866 4.0719 12C4.0719 12.8134 4.35684 13.5048 4.92673 14.0742C5.49659 14.6436 6.18858 14.9282 7.0027 14.9282H10.9105V17.2033ZM7.86265 13.0478V10.9522H16.1376V13.0478H7.86265ZM13.0898 17.2033V14.9282H16.9976C17.8117 14.9282 18.5037 14.6436 19.0736 14.0742C19.6435 13.5048 19.9284 12.8134 19.9284 12C19.9284 11.1866 19.6435 10.4952 19.0736 9.92582C18.5037 9.35644 17.8117 9.07175 16.9976 9.07175H13.0898V6.79672H17.0001C18.4397 6.79672 19.6668 7.304 20.6814 8.31855C21.6961 9.3331 22.2034 10.5601 22.2034 11.9995C22.2034 13.439 21.6961 14.6661 20.6814 15.681C19.6668 16.6958 18.4397 17.2033 17.0001 17.2033H13.0898Z" fill="#282828"/>
</g>
</svg>
