<svg width="20" height="20" viewBox="0 0 20 20" fill="none" xmlns="http://www.w3.org/2000/svg">
<mask id="mask0_472_1980" style="mask-type:alpha" maskUnits="userSpaceOnUse" x="0" y="0" width="20" height="20">
<rect width="20" height="20" fill="#D9D9D9"/>
</mask>
<g mask="url(#mask0_472_1980)">
<path d="M5.05979 17.6974C4.53843 17.6974 4.09212 17.512 3.72086 17.1412C3.34958 16.7703 3.16394 16.3245 3.16394 15.8038V7.59938C3.16394 7.07863 3.34958 6.63283 3.72086 6.26197C4.09212 5.89114 4.53843 5.70572 5.05979 5.70572H5.75861V4.18527C5.75861 3.00727 6.1715 2.00419 6.99729 1.17602C7.82307 0.34786 8.82398 -0.0662231 10 -0.0662231C11.176 -0.0662231 12.1769 0.34786 13.0027 1.17602C13.8285 2.00419 14.2414 3.00727 14.2414 4.18527V5.70572H14.9402C15.4616 5.70572 15.9079 5.89114 16.2791 6.26197C16.6504 6.63283 16.8361 7.07863 16.8361 7.59938V15.8038C16.8361 16.3245 16.6504 16.7703 16.2791 17.1412C15.9079 17.512 15.4616 17.6974 14.9402 17.6974H5.05979ZM5.05979 15.8038H14.9402V7.59938H5.05979V15.8038ZM10 13.3663C10.4583 13.3663 10.8507 13.2033 11.1771 12.8773C11.5035 12.5513 11.6667 12.1594 11.6667 11.7016C11.6667 11.2438 11.5035 10.8519 11.1771 10.5258C10.8507 10.1998 10.4583 10.0368 10 10.0368C9.54167 10.0368 9.14931 10.1998 8.82292 10.5258C8.49653 10.8519 8.33334 11.2438 8.33334 11.7016C8.33334 12.1594 8.49653 12.5513 8.82292 12.8773C9.14931 13.2033 9.54167 13.3663 10 13.3663ZM7.65444 5.70572H12.3456V4.18527C12.3456 3.53032 12.1183 2.97362 11.6637 2.51516C11.2092 2.0567 10.6546 1.82747 10 1.82747C9.34542 1.82747 8.79084 2.0567 8.33627 2.51516C7.88172 2.97362 7.65444 3.53032 7.65444 4.18527V5.70572Z" fill="#9E9E9E"/>
</g>
</svg>
