<svg width="24" height="24" viewBox="0 0 24 24" fill="none" xmlns="http://www.w3.org/2000/svg">
<mask id="mask0_395_1713" style="mask-type:alpha" maskUnits="userSpaceOnUse" x="0" y="0" width="24" height="24">
<rect width="24" height="24" fill="#D9D9D9"/>
</mask>
<g mask="url(#mask0_395_1713)">
<path d="M13.9998 10.1212V8.42121C14.5498 8.18788 15.1123 8.01288 15.6873 7.89621C16.2623 7.77955 16.8664 7.72121 17.4998 7.72121C17.9331 7.72121 18.3581 7.75455 18.7748 7.82121C19.1914 7.88788 19.5998 7.97121 19.9998 8.07121V9.67121C19.5998 9.52121 19.1956 9.40871 18.7873 9.33371C18.3789 9.25871 17.9498 9.22121 17.4998 9.22121C16.8664 9.22121 16.2581 9.30038 15.6748 9.45871C15.0914 9.61705 14.5331 9.83788 13.9998 10.1212ZM13.9998 15.6212V13.9212C14.5498 13.6879 15.1123 13.5129 15.6873 13.3962C16.2623 13.2795 16.8664 13.2212 17.4998 13.2212C17.9331 13.2212 18.3581 13.2545 18.7748 13.3212C19.1914 13.3879 19.5998 13.4712 19.9998 13.5712V15.1712C19.5998 15.0212 19.1956 14.9087 18.7873 14.8337C18.3789 14.7587 17.9498 14.7212 17.4998 14.7212C16.8664 14.7212 16.2581 14.7962 15.6748 14.9462C15.0914 15.0962 14.5331 15.3212 13.9998 15.6212ZM13.9998 12.8712V11.1712C14.5498 10.9379 15.1123 10.7629 15.6873 10.6462C16.2623 10.5295 16.8664 10.4712 17.4998 10.4712C17.9331 10.4712 18.3581 10.5045 18.7748 10.5712C19.1914 10.6379 19.5998 10.7212 19.9998 10.8212V12.4212C19.5998 12.2712 19.1956 12.1587 18.7873 12.0837C18.3789 12.0087 17.9498 11.9712 17.4998 11.9712C16.8664 11.9712 16.2581 12.0504 15.6748 12.2087C15.0914 12.367 14.5331 12.5879 13.9998 12.8712ZM6.49978 16.2212C7.28311 16.2212 8.04561 16.3087 8.78728 16.4837C9.52894 16.6587 10.2664 16.9212 10.9998 17.2712V7.42121C10.3164 7.02121 9.59144 6.72121 8.82478 6.52121C8.05811 6.32121 7.28311 6.22121 6.49978 6.22121C5.89978 6.22121 5.30394 6.27955 4.71228 6.39621C4.12061 6.51288 3.54978 6.68788 2.99978 6.92121V16.8212C3.58311 16.6212 4.16228 16.4712 4.73728 16.3712C5.31228 16.2712 5.89978 16.2212 6.49978 16.2212ZM12.9998 17.2712C13.7331 16.9212 14.4706 16.6587 15.2123 16.4837C15.9539 16.3087 16.7164 16.2212 17.4998 16.2212C18.0998 16.2212 18.6873 16.2712 19.2623 16.3712C19.8373 16.4712 20.4164 16.6212 20.9998 16.8212V6.92121C20.4498 6.68788 19.8789 6.51288 19.2873 6.39621C18.6956 6.27955 18.0998 6.22121 17.4998 6.22121C16.7164 6.22121 15.9414 6.32121 15.1748 6.52121C14.4081 6.72121 13.6831 7.02121 12.9998 7.42121V17.2712ZM12.0177 20.4424C11.2137 19.8131 10.3451 19.3154 9.41173 18.9495C8.47839 18.5835 7.50774 18.4006 6.49978 18.4006C5.8134 18.4006 5.13926 18.4932 4.47738 18.6786C3.81549 18.8639 3.18021 19.1192 2.57153 19.4446C2.16573 19.6558 1.77143 19.6462 1.38863 19.4156C1.00584 19.1851 0.814453 18.8489 0.814453 18.4071V6.36306C0.814453 6.12393 0.871245 5.89871 0.984828 5.68741C1.09841 5.4761 1.26879 5.31761 1.49598 5.21196C2.27061 4.81595 3.07659 4.52093 3.9139 4.32691C4.75122 4.1329 5.60699 4.03589 6.4812 4.03589C7.45627 4.03589 8.4083 4.16089 9.33728 4.41089C10.2663 4.66089 11.1538 5.04186 11.9998 5.55381C12.8498 5.04585 13.7383 4.66586 14.6653 4.41386C15.5923 4.16188 16.5433 4.03589 17.5184 4.03589C18.3926 4.03589 19.2483 4.1329 20.0857 4.32691C20.923 4.52093 21.7289 4.81595 22.5036 5.21196C22.7308 5.31761 22.9011 5.4761 23.0147 5.68741C23.1283 5.89871 23.1851 6.12393 23.1851 6.36306V18.4968C23.1851 18.9239 22.9947 19.2425 22.6139 19.4525C22.2331 19.6624 21.8378 19.6598 21.428 19.4446C20.8193 19.1192 20.1841 18.8639 19.5222 18.6786C18.8603 18.4932 18.1862 18.4006 17.4998 18.4006C16.4998 18.4006 15.5361 18.5845 14.6088 18.9525C13.6814 19.3204 12.8177 19.817 12.0177 20.4424Z" fill="#282828"/>
</g>
</svg>
