<svg width="24" height="24" viewBox="0 0 24 24" fill="none" xmlns="http://www.w3.org/2000/svg">
<mask id="mask0_73_307" style="mask-type:alpha" maskUnits="userSpaceOnUse" x="0" y="0" width="24" height="24">
<rect width="24" height="24" fill="#D9D9D9"/>
</mask>
<g mask="url(#mask0_73_307)">
<path d="M2.72498 11.0001V2.7251H11V11.0001H2.72498ZM4.99998 8.7251H8.72498V5.0001H4.99998V8.7251ZM2.72498 21.2751V13.0001H11V21.2751H2.72498ZM4.99998 19.0001H8.72498V15.2751H4.99998V19.0001ZM13 11.0001V2.7251H21.275V11.0001H13ZM15.275 8.7251H19V5.0001H15.275V8.7251ZM19.2092 21.2751V19.2034H21.275V21.2751H19.2092ZM13 15.0658V13.0001H15.0717V15.0658H13ZM15.0717 17.1376V15.0658H17.1375V17.1376H15.0717ZM13 19.2034V17.1376H15.0717V19.2034H13ZM15.0717 21.2751V19.2034H17.1375V21.2751H15.0717ZM17.1375 19.2034V17.1376H19.2092V19.2034H17.1375ZM17.1375 15.0658V13.0001H19.2092V15.0658H17.1375ZM19.2092 17.1376V15.0658H21.275V17.1376H19.2092Z" fill="#2C2C2C"/>
</g>
</svg>
