<svg width="24" height="24" viewBox="0 0 24 24" fill="none" xmlns="http://www.w3.org/2000/svg">
<mask id="mask0_73_301" style="mask-type:alpha" maskUnits="userSpaceOnUse" x="0" y="0" width="24" height="24">
<rect width="24" height="24" fill="#D9D9D9"/>
</mask>
<g mask="url(#mask0_73_301)">
<path d="M9.07656 22.2034L8.66462 18.9377C8.47983 18.8663 8.30456 18.7802 8.13879 18.6795C7.97304 18.5788 7.81045 18.4717 7.65101 18.3583L4.61624 19.6382L1.68689 14.5654L4.30972 12.5795C4.29703 12.4788 4.29069 12.3822 4.29069 12.2898V11.7105C4.29069 11.6181 4.29703 11.5215 4.30972 11.4208L1.68689 9.43492L4.61624 4.37405L7.66299 5.64798C7.82241 5.53458 7.98617 5.42851 8.15429 5.32977C8.32241 5.23104 8.49252 5.14598 8.66462 5.0746L9.07656 1.79688H14.9233L15.3353 5.0746C15.52 5.14598 15.6953 5.23104 15.8611 5.32977C16.0268 5.42851 16.1894 5.53458 16.3489 5.64798L19.3836 4.37405L22.313 9.43492L19.6842 11.4208C19.6969 11.5215 19.7032 11.6181 19.7032 11.7105V12.0001C19.7032 12.1009 19.7022 12.1974 19.7002 12.2898C19.6982 12.3822 19.6845 12.4788 19.6592 12.5795L22.288 14.5654L19.3527 19.6382L16.3369 18.3583C16.1775 18.4717 16.0137 18.5788 15.8456 18.6795C15.6775 18.7802 15.5074 18.8663 15.3353 18.9377L14.9233 22.2034H9.07656ZM12.032 15.5001C12.9987 15.5001 13.8237 15.1585 14.507 14.4752C15.1903 13.7918 15.532 12.9668 15.532 12.0001C15.532 11.0335 15.1903 10.2085 14.507 9.52515C13.8237 8.84182 12.9987 8.50015 12.032 8.50015C11.0527 8.50015 10.2245 8.84182 9.54749 9.52515C8.87051 10.2085 8.53201 11.0335 8.53201 12.0001C8.53201 12.9668 8.87051 13.7918 9.54749 14.4752C10.2245 15.1585 11.0527 15.5001 12.032 15.5001Z" fill="#2C2C2C"/>
</g>
</svg>
