<svg width="25" height="24" viewBox="0 0 25 24" fill="none" xmlns="http://www.w3.org/2000/svg">
<mask id="mask0_756_1016" style="mask-type:alpha" maskUnits="userSpaceOnUse" x="0" y="0" width="25" height="24">
<rect x="0.333496" width="24" height="24" fill="#D9D9D9"/>
</mask>
<g mask="url(#mask0_756_1016)">
<path d="M9.58369 22L9.18369 18.8C8.96702 18.7167 8.76286 18.6167 8.57119 18.5C8.37952 18.3833 8.19202 18.2583 8.00869 18.125L5.03369 19.375L2.28369 14.625L4.85869 12.675C4.84202 12.5583 4.83369 12.4458 4.83369 12.3375V11.6625C4.83369 11.5542 4.84202 11.4417 4.85869 11.325L2.28369 9.375L5.03369 4.625L8.00869 5.875C8.19202 5.74167 8.38369 5.61667 8.58369 5.5C8.78369 5.38333 8.98369 5.28333 9.18369 5.2L9.58369 2H15.0837L15.4837 5.2C15.7004 5.28333 15.9045 5.38333 16.0962 5.5C16.2879 5.61667 16.4754 5.74167 16.6587 5.875L19.6337 4.625L22.3837 9.375L19.8087 11.325C19.8254 11.4417 19.8337 11.5542 19.8337 11.6625V12.3375C19.8337 12.4458 19.817 12.5583 19.7837 12.675L22.3587 14.625L19.6087 19.375L16.6587 18.125C16.4754 18.2583 16.2837 18.3833 16.0837 18.5C15.8837 18.6167 15.6837 18.7167 15.4837 18.8L15.0837 22H9.58369ZM11.3337 20H13.3087L13.6587 17.35C14.1754 17.2167 14.6545 17.0208 15.0962 16.7625C15.5379 16.5042 15.942 16.1917 16.3087 15.825L18.7837 16.85L19.7587 15.15L17.6087 13.525C17.692 13.2917 17.7504 13.0458 17.7837 12.7875C17.817 12.5292 17.8337 12.2667 17.8337 12C17.8337 11.7333 17.817 11.4708 17.7837 11.2125C17.7504 10.9542 17.692 10.7083 17.6087 10.475L19.7587 8.85L18.7837 7.15L16.3087 8.2C15.942 7.81667 15.5379 7.49583 15.0962 7.2375C14.6545 6.97917 14.1754 6.78333 13.6587 6.65L13.3337 4H11.3587L11.0087 6.65C10.492 6.78333 10.0129 6.97917 9.57119 7.2375C9.12952 7.49583 8.72536 7.80833 8.35869 8.175L5.88369 7.15L4.90869 8.85L7.05869 10.45C6.97536 10.7 6.91702 10.95 6.88369 11.2C6.85036 11.45 6.83369 11.7167 6.83369 12C6.83369 12.2667 6.85036 12.525 6.88369 12.775C6.91702 13.025 6.97536 13.275 7.05869 13.525L4.90869 15.15L5.88369 16.85L8.35869 15.8C8.72536 16.1833 9.12952 16.5042 9.57119 16.7625C10.0129 17.0208 10.492 17.2167 11.0087 17.35L11.3337 20ZM12.3837 15.5C13.3504 15.5 14.1754 15.1583 14.8587 14.475C15.542 13.7917 15.8837 12.9667 15.8837 12C15.8837 11.0333 15.542 10.2083 14.8587 9.525C14.1754 8.84167 13.3504 8.5 12.3837 8.5C11.4004 8.5 10.5712 8.84167 9.89619 9.525C9.22119 10.2083 8.88369 11.0333 8.88369 12C8.88369 12.9667 9.22119 13.7917 9.89619 14.475C10.5712 15.1583 11.4004 15.5 12.3837 15.5Z" fill="#2C2C2C"/>
</g>
</svg>
