<svg width="25" height="24" viewBox="0 0 25 24" fill="none" xmlns="http://www.w3.org/2000/svg">
<mask id="mask0_756_1005" style="mask-type:alpha" maskUnits="userSpaceOnUse" x="0" y="0" width="25" height="24">
<rect x="0.666504" width="24" height="24" fill="#D9D9D9"/>
</mask>
<g mask="url(#mask0_756_1005)">
<path d="M18.6665 22C17.8332 22 17.1248 21.7083 16.5415 21.125C15.9582 20.5417 15.6665 19.8333 15.6665 19C15.6665 18.8833 15.6748 18.7625 15.6915 18.6375C15.7082 18.5125 15.7332 18.4 15.7665 18.3L8.7165 14.2C8.43317 14.45 8.1165 14.6458 7.7665 14.7875C7.4165 14.9292 7.04984 15 6.6665 15C5.83317 15 5.12484 14.7083 4.5415 14.125C3.95817 13.5417 3.6665 12.8333 3.6665 12C3.6665 11.1667 3.95817 10.4583 4.5415 9.875C5.12484 9.29167 5.83317 9 6.6665 9C7.04984 9 7.4165 9.07083 7.7665 9.2125C8.1165 9.35417 8.43317 9.55 8.7165 9.8L15.7665 5.7C15.7332 5.6 15.7082 5.4875 15.6915 5.3625C15.6748 5.2375 15.6665 5.11667 15.6665 5C15.6665 4.16667 15.9582 3.45833 16.5415 2.875C17.1248 2.29167 17.8332 2 18.6665 2C19.4998 2 20.2082 2.29167 20.7915 2.875C21.3748 3.45833 21.6665 4.16667 21.6665 5C21.6665 5.83333 21.3748 6.54167 20.7915 7.125C20.2082 7.70833 19.4998 8 18.6665 8C18.2832 8 17.9165 7.92917 17.5665 7.7875C17.2165 7.64583 16.8998 7.45 16.6165 7.2L9.5665 11.3C9.59984 11.4 9.62484 11.5125 9.6415 11.6375C9.65817 11.7625 9.6665 11.8833 9.6665 12C9.6665 12.1167 9.65817 12.2375 9.6415 12.3625C9.62484 12.4875 9.59984 12.6 9.5665 12.7L16.6165 16.8C16.8998 16.55 17.2165 16.3542 17.5665 16.2125C17.9165 16.0708 18.2832 16 18.6665 16C19.4998 16 20.2082 16.2917 20.7915 16.875C21.3748 17.4583 21.6665 18.1667 21.6665 19C21.6665 19.8333 21.3748 20.5417 20.7915 21.125C20.2082 21.7083 19.4998 22 18.6665 22ZM18.6665 6C18.9498 6 19.1873 5.90417 19.379 5.7125C19.5707 5.52083 19.6665 5.28333 19.6665 5C19.6665 4.71667 19.5707 4.47917 19.379 4.2875C19.1873 4.09583 18.9498 4 18.6665 4C18.3832 4 18.1457 4.09583 17.954 4.2875C17.7623 4.47917 17.6665 4.71667 17.6665 5C17.6665 5.28333 17.7623 5.52083 17.954 5.7125C18.1457 5.90417 18.3832 6 18.6665 6ZM6.6665 13C6.94984 13 7.18734 12.9042 7.379 12.7125C7.57067 12.5208 7.6665 12.2833 7.6665 12C7.6665 11.7167 7.57067 11.4792 7.379 11.2875C7.18734 11.0958 6.94984 11 6.6665 11C6.38317 11 6.14567 11.0958 5.954 11.2875C5.76234 11.4792 5.6665 11.7167 5.6665 12C5.6665 12.2833 5.76234 12.5208 5.954 12.7125C6.14567 12.9042 6.38317 13 6.6665 13ZM18.6665 20C18.9498 20 19.1873 19.9042 19.379 19.7125C19.5707 19.5208 19.6665 19.2833 19.6665 19C19.6665 18.7167 19.5707 18.4792 19.379 18.2875C19.1873 18.0958 18.9498 18 18.6665 18C18.3832 18 18.1457 18.0958 17.954 18.2875C17.7623 18.4792 17.6665 18.7167 17.6665 19C17.6665 19.2833 17.7623 19.5208 17.954 19.7125C18.1457 19.9042 18.3832 20 18.6665 20Z" fill="#2C2C2C"/>
</g>
</svg>
